# Blender v2.79 (sub 0) OBJ File: 'House.blend'
# www.blender.org
mtllib House.mtl
o Cube
v 1.413268 0.145489 -0.001092
v 1.413268 -1.133743 -0.001092
v -0.000946 0.145489 1.413122
v -0.000946 -1.133743 1.413122
v 1.523097 0.145489 -0.001092
v -0.000946 0.145489 1.522951
v 0.883918 0.826659 -0.001092
v -0.000946 0.826659 0.883773
v 0.766138 0.826659 -0.001092
v -0.000946 0.826659 0.765992
v 0.766138 0.750906 -0.001092
v -0.000946 0.750906 0.765992
v -0.000946 0.750906 -0.768176
v -0.768030 0.750906 -0.001092
v 1.362827 0.233631 0.086860
v 0.087006 0.233631 1.362682
v 0.869130 0.757400 0.097117
v 0.097262 0.757400 0.868985
v 1.293141 0.233631 0.017174
v 0.017320 0.233631 1.292996
v 0.799445 0.757400 0.027431
v 0.027576 0.757400 0.799299
v 1.332731 0.143797 0.079445
v 1.332731 -1.128480 0.079445
v 0.079590 0.143797 1.332586
v 0.079590 -1.128480 1.332586
v 1.275665 0.147217 0.024870
v 1.275665 -1.125059 0.024870
v 0.022525 0.147217 1.278011
v 0.022525 -1.125059 1.278011
v 0.190954 -0.725540 1.109581
v 1.107235 -0.725540 0.193300
v 1.107235 -0.061222 0.193300
v 0.190954 -0.061222 1.109581
v 0.230285 -0.725540 1.148911
v 1.146566 -0.725540 0.232630
v 1.146566 -0.061222 0.232630
v 0.230285 -0.061222 1.148911
v 0.324833 -0.610418 1.054363
v 1.052018 -0.610418 0.327178
v 1.052018 -0.174045 0.327178
v 0.324833 -0.174045 1.054363
v 0.291598 -0.610418 1.021129
v 1.018783 -0.610418 0.293943
v 1.018783 -0.174045 0.293943
v 0.291598 -0.174045 1.021129
v -1.413268 0.145489 -0.001092
v -1.413268 -1.133743 -0.001092
v 0.000946 0.145489 1.413122
v 0.000946 -1.133743 1.413122
v -1.523097 0.145489 -0.001092
v 0.000946 0.145489 1.522951
v -0.883918 0.826659 -0.001092
v 0.000946 0.826659 0.883773
v -0.766138 0.826659 -0.001092
v 0.000946 0.826659 0.765992
v -0.766138 0.750906 -0.001092
v 0.000946 0.750906 0.765992
v 0.000946 0.750906 -0.768176
v 0.768030 0.750906 -0.001092
v -1.362827 0.233631 0.086860
v -0.087006 0.233631 1.362682
v -0.869130 0.757400 0.097117
v -0.097262 0.757400 0.868985
v -1.293141 0.233631 0.017174
v -0.017320 0.233631 1.292996
v -0.799445 0.757400 0.027431
v -0.027576 0.757400 0.799299
v -1.332731 0.143797 0.079445
v -1.332731 -1.128480 0.079445
v -0.079590 0.143797 1.332586
v -0.079590 -1.128480 1.332586
v -1.275665 0.147217 0.024870
v -1.275665 -1.125059 0.024870
v -0.022525 0.147217 1.278011
v -0.022525 -1.125059 1.278011
v -0.190954 -0.725540 1.109581
v -1.107235 -0.725540 0.193300
v -1.107235 -0.061222 0.193300
v -0.190954 -0.061222 1.109581
v -0.230285 -0.725540 1.148911
v -1.146566 -0.725540 0.232630
v -1.146566 -0.061222 0.232630
v -0.230285 -0.061222 1.148911
v -0.324833 -0.610418 1.054363
v -1.052018 -0.610418 0.327178
v -1.052018 -0.174045 0.327178
v -0.324833 -0.174045 1.054363
v -0.291598 -0.610418 1.021129
v -1.018783 -0.610418 0.293943
v -1.018783 -0.174045 0.293943
v -0.291598 -0.174045 1.021129
v 1.413268 0.145489 0.001092
v 1.413268 -1.133743 0.001092
v -0.000946 0.145489 -1.413122
v -0.000946 -1.133743 -1.413122
v 1.523097 0.145489 0.001092
v -0.000946 0.145489 -1.522951
v 0.883918 0.826659 0.001092
v -0.000946 0.826659 -0.883773
v 0.766138 0.826659 0.001092
v -0.000946 0.826659 -0.765992
v 0.766138 0.750906 0.001092
v -0.000946 0.750906 -0.765992
v -0.000946 0.750906 0.768176
v -0.768030 0.750906 0.001092
v 1.362827 0.233631 -0.086860
v 0.087006 0.233631 -1.362682
v 0.869130 0.757400 -0.097117
v 0.097262 0.757400 -0.868985
v 1.293141 0.233631 -0.017174
v 0.017320 0.233631 -1.292996
v 0.799445 0.757400 -0.027431
v 0.027576 0.757400 -0.799299
v 1.332731 0.143797 -0.079445
v 1.332731 -1.128480 -0.079445
v 0.079590 0.143797 -1.332586
v 0.079590 -1.128480 -1.332586
v 1.275665 0.147217 -0.024870
v 1.275665 -1.125059 -0.024870
v 0.022525 0.147217 -1.278011
v 0.022525 -1.125059 -1.278011
v 0.190954 -0.725540 -1.109581
v 1.107235 -0.725540 -0.193300
v 1.107235 -0.061222 -0.193300
v 0.190954 -0.061222 -1.109581
v 0.230285 -0.725540 -1.148911
v 1.146566 -0.725540 -0.232630
v 1.146566 -0.061222 -0.232630
v 0.230285 -0.061222 -1.148911
v 0.324833 -0.610418 -1.054363
v 1.052018 -0.610418 -0.327178
v 1.052018 -0.174045 -0.327178
v 0.324833 -0.174045 -1.054363
v 0.291598 -0.610418 -1.021129
v 1.018783 -0.610418 -0.293943
v 1.018783 -0.174045 -0.293943
v 0.291598 -0.174045 -1.021129
v -1.413268 0.145489 0.001092
v -1.413268 -1.133743 0.001092
v 0.000946 0.145489 -1.413122
v 0.000946 -1.133743 -1.413122
v -1.523097 0.145489 0.001092
v 0.000946 0.145489 -1.522951
v -0.883918 0.826659 0.001092
v 0.000946 0.826659 -0.883773
v -0.766138 0.826659 0.001092
v 0.000946 0.826659 -0.765992
v -0.766138 0.750906 0.001092
v 0.000946 0.750906 -0.765992
v 0.000946 0.750906 0.768176
v 0.768030 0.750906 0.001092
v -1.362827 0.233631 -0.086860
v -0.087006 0.233631 -1.362682
v -0.869130 0.757400 -0.097117
v -0.097262 0.757400 -0.868985
v -1.293141 0.233631 -0.017174
v -0.017320 0.233631 -1.292996
v -0.799445 0.757400 -0.027431
v -0.027576 0.757400 -0.799299
v -1.332731 0.143797 -0.079445
v -1.332731 -1.128480 -0.079445
v -0.079590 0.143797 -1.332586
v -0.079590 -1.128480 -1.332586
v -1.275665 0.147217 -0.024870
v -1.275665 -1.125059 -0.024870
v -0.022525 0.147217 -1.278011
v -0.022525 -1.125059 -1.278011
v -0.190954 -0.725540 -1.109581
v -1.107235 -0.725540 -0.193300
v -1.107235 -0.061222 -0.193300
v -0.190954 -0.061222 -1.109581
v -0.230285 -0.725540 -1.148911
v -1.146566 -0.725540 -0.232630
v -1.146566 -0.061222 -0.232630
v -0.230285 -0.061222 -1.148911
v -0.324833 -0.610418 -1.054363
v -1.052018 -0.610418 -0.327178
v -1.052018 -0.174045 -0.327178
v -0.324833 -0.174045 -1.054363
v -0.291598 -0.610418 -1.021129
v -1.018783 -0.610418 -0.293943
v -1.018783 -0.174045 -0.293943
v -0.291598 -0.174045 -1.021129
vt 0.000000 0.000000
vt 0.000000 0.000000
vt 0.000000 0.000000
vt 0.000000 0.000000
vt 0.000000 0.000000
vt 0.000000 0.000000
vt 0.000000 0.000000
vt 0.000000 0.000000
vt 0.000000 0.000000
vt 0.000000 0.000000
vt 0.000000 0.000000
vt 0.000000 0.000000
vt 0.000000 0.000000
vt 0.000000 0.000000
vt 0.000000 0.000000
vt 0.000000 0.000000
vt 0.000000 0.000000
vt 0.000000 0.000000
vt 0.000000 0.000000
vt 0.000000 0.000000
vt 0.000000 0.000000
vt 0.000000 0.000000
vt 0.000000 0.000000
vt 0.000000 0.000000
vt 0.000000 0.000000
vt 0.000000 0.000000
vt 0.000000 0.000000
vt 0.000000 0.000000
vt 0.000000 0.000000
vt 0.000000 0.000000
vt 0.000000 0.000000
vt 0.000000 0.000000
vt 0.000000 0.000000
vt 0.000000 0.000000
vt 0.000000 0.000000
vt 0.000000 0.000000
vt 0.000000 0.000000
vt 0.000000 0.000000
vt 0.000000 0.000000
vt 0.000000 0.000000
vt 0.000000 0.000000
vt 0.000000 0.000000
vt 0.000000 0.000000
vt 0.000000 0.000000
vt 0.000000 0.000000
vt 0.000000 0.000000
vt 0.000000 0.000000
vt 0.000000 0.000000
vt 0.000000 0.000000
vt 0.000000 0.000000
vt 0.000000 0.000000
vt 0.000000 0.000000
vt 0.000000 0.000000
vt 0.000000 0.000000
vt 0.000000 0.000000
vt 0.000000 0.000000
vt 0.000000 0.000000
vt 0.000000 0.000000
vt 0.000000 0.000000
vt 0.000000 0.000000
vt 0.000000 0.000000
vt 0.000000 0.000000
vt 0.000000 0.000000
vt 0.000000 0.000000
vt 0.000000 0.000000
vt 0.000000 0.000000
vt 0.000000 0.000000
vt 0.000000 0.000000
vt 0.000000 0.000000
vt 0.000000 0.000000
vt 0.000000 0.000000
vt 0.000000 0.000000
vt 0.000000 0.000000
vt 0.000000 0.000000
vt 0.000000 0.000000
vt 0.000000 0.000000
vt 0.000000 0.000000
vt 0.000000 0.000000
vt 0.000000 0.000000
vt 0.000000 0.000000
vt 0.000000 0.000000
vt 0.000000 0.000000
vt 0.000000 0.000000
vt 0.000000 0.000000
vt 0.000000 0.000000
vt 0.000000 0.000000
vt 0.000000 0.000000
vt 0.000000 0.000000
vt 0.000000 0.000000
vt 0.000000 0.000000
vt 0.000000 0.000000
vt 0.000000 0.000000
vt 0.000000 0.000000
vt 0.000000 0.000000
vt 0.000000 0.000000
vt 0.000000 0.000000
vt 0.000000 0.000000
vt 0.000000 0.000000
vt 0.000000 0.000000
vt 0.000000 0.000000
vt 0.000000 0.000000
vt 0.000000 0.000000
vt 0.000000 0.000000
vt 0.000000 0.000000
vt 0.000000 0.000000
vt 0.000000 0.000000
vt 0.000000 0.000000
vt 0.000000 0.000000
vt 0.000000 0.000000
vt 0.000000 0.000000
vt 0.000000 0.000000
vt 0.000000 0.000000
vt 0.000000 0.000000
vt 0.000000 0.000000
vt 0.000000 0.000000
vt 0.000000 0.000000
vt 0.000000 0.000000
vt 0.000000 0.000000
vt 0.000000 0.000000
vt 0.000000 0.000000
vt 0.000000 0.000000
vt 0.000000 0.000000
vt 0.000000 0.000000
vt 0.000000 0.000000
vt 0.000000 0.000000
vt 0.000000 0.000000
vt 0.000000 0.000000
vt 0.000000 0.000000
vt 0.000000 0.000000
vt 0.000000 0.000000
vt 0.000000 0.000000
vt 0.000000 0.000000
vt 0.000000 0.000000
vt 0.000000 0.000000
vt 0.000000 0.000000
vt 0.000000 0.000000
vt 0.000000 0.000000
vt 0.000000 0.000000
vt 0.000000 0.000000
vt 0.000000 0.000000
vt 0.000000 0.000000
vt 0.000000 0.000000
vt 0.000000 0.000000
vt 0.000000 0.000000
vt 0.000000 0.000000
vt 0.000000 0.000000
vt 0.000000 0.000000
vt 0.000000 0.000000
vt 0.000000 0.000000
vt 0.000000 0.000000
vt 0.000000 0.000000
vt 0.000000 0.000000
vt 0.000000 0.000000
vt 0.000000 0.000000
vt 0.000000 0.000000
vt 0.000000 0.000000
vt 0.000000 0.000000
vt 0.000000 0.000000
vt 0.000000 0.000000
vt 0.000000 0.000000
vt 0.000000 0.000000
vt 0.000000 0.000000
vt 0.000000 0.000000
vt 0.000000 0.000000
vt 0.000000 0.000000
vt 0.000000 0.000000
vt 0.000000 0.000000
vt 0.000000 0.000000
vt 0.000000 0.000000
vt 0.000000 0.000000
vt 0.000000 0.000000
vt 0.000000 0.000000
vt 0.000000 0.000000
vt 0.000000 0.000000
vt 0.000000 0.000000
vt 0.000000 0.000000
vt 0.000000 0.000000
vt 0.000000 0.000000
vt 0.000000 0.000000
vt 0.000000 0.000000
vt 0.000000 0.000000
vt 0.000000 0.000000
vt 0.000000 0.000000
vt 0.000000 0.000000
vn 0.7071 0.0000 0.7071
vn -0.7071 0.0000 0.7071
vn 0.0000 1.0000 0.0000
vn 0.7071 0.0000 -0.7071
vn -0.7071 0.0000 -0.7071
vn 0.5921 0.5466 0.5921
vn -0.5921 0.5466 0.5921
vn 0.5921 0.5466 -0.5921
vn -0.5921 0.5466 -0.5921
vn 0.0000 -1.0000 0.0000
vn 0.6116 0.5018 0.6116
vn 0.5846 -0.5625 -0.5846
vn 0.5259 0.5802 0.6219
vn 0.6219 0.5802 0.5259
vn 0.5383 0.6484 0.5383
vn -0.5846 -0.5625 0.5846
vn -0.0306 -0.9991 -0.0306
vn 0.7071 0.0001 0.7071
vn -0.6912 0.0000 0.7227
vn 0.6912 0.0000 -0.7227
vn -0.6116 0.5018 0.6116
vn -0.5846 -0.5625 -0.5846
vn -0.5259 0.5802 0.6219
vn -0.6219 0.5802 0.5259
vn -0.5383 0.6484 0.5383
vn 0.5846 -0.5625 0.5846
vn 0.0306 -0.9991 -0.0306
vn -0.7071 0.0001 0.7071
vn 0.6912 0.0000 0.7227
vn -0.6912 0.0000 -0.7227
vn 0.6116 0.5018 -0.6116
vn 0.5259 0.5802 -0.6219
vn 0.6219 0.5802 -0.5259
vn 0.5383 0.6484 -0.5383
vn -0.0306 -0.9991 0.0306
vn 0.7071 0.0001 -0.7071
vn -0.6116 0.5018 -0.6116
vn -0.5259 0.5802 -0.6219
vn -0.6219 0.5802 -0.5259
vn -0.5383 0.6484 -0.5383
vn 0.0306 -0.9991 0.0306
vn -0.7071 0.0001 -0.7071
usemtl Base
s off
f 29/1/1 30/2/1 31/3/1 34/4/1
f 30/2/1 28/5/1 32/6/1 31/3/1
f 27/7/1 29/1/1 34/4/1 33/8/1
f 28/5/1 27/7/1 33/8/1 32/6/1
f 40/9/2 41/10/2 45/11/2 44/12/2
f 39/13/3 40/9/3 44/12/3 43/14/3
f 75/15/2 80/16/2 77/17/2 76/18/2
f 76/18/2 77/17/2 78/19/2 74/20/2
f 73/21/2 79/22/2 80/16/2 75/15/2
f 74/20/2 78/19/2 79/22/2 73/21/2
f 86/23/1 90/24/1 91/25/1 87/26/1
f 85/27/3 89/28/3 90/24/3 86/23/3
f 121/29/4 126/30/4 123/31/4 122/32/4
f 122/32/4 123/31/4 124/33/4 120/34/4
f 119/35/4 125/36/4 126/30/4 121/29/4
f 120/34/4 124/33/4 125/36/4 119/35/4
f 132/37/5 136/38/5 137/39/5 133/40/5
f 131/41/3 135/42/3 136/38/3 132/37/3
f 167/43/5 168/44/5 169/45/5 172/46/5
f 168/44/5 166/47/5 170/48/5 169/45/5
f 165/49/5 167/43/5 172/46/5 171/50/5
f 166/47/5 165/49/5 171/50/5 170/48/5
f 178/51/4 179/52/4 183/53/4 182/54/4
f 177/55/3 178/51/3 182/54/3 181/56/3
usemtl Roof
f 11/57/3 13/58/3 14/59/3 12/60/3
f 20/61/6 19/62/6 21/63/6 22/64/6
f 57/65/3 58/66/3 60/67/3 59/68/3
f 66/69/7 68/70/7 67/71/7 65/72/7
f 103/73/3 104/74/3 106/75/3 105/76/3
f 112/77/8 114/78/8 113/79/8 111/80/8
f 149/81/3 151/82/3 152/83/3 150/84/3
f 158/85/9 157/86/9 159/87/9 160/88/9
usemtl Details
f 3/89/10 1/90/10 5/91/10 6/92/10
f 2/93/1 1/90/1 23/94/1 24/95/1
f 31/3/10 32/6/10 36/96/10 35/97/10
f 6/92/11 5/91/11 15/98/11 16/99/11
f 10/100/5 9/101/5 11/57/5 12/60/5
f 8/102/3 7/103/3 9/101/3 10/100/3
f 18/104/12 16/99/12 20/61/12 22/64/12
f 8/102/13 6/92/13 16/99/13 18/104/13
f 5/91/14 7/103/14 17/105/14 15/98/14
f 7/103/15 8/102/15 18/104/15 17/105/15
f 17/105/10 18/104/10 22/64/10 21/63/10
f 15/98/16 17/105/16 21/63/16 19/62/16
f 16/99/3 15/98/3 19/62/3 20/61/3
f 23/94/17 25/106/17 29/1/17 27/7/17
f 1/90/18 3/89/18 25/106/18 23/94/18
f 3/89/1 4/107/1 26/108/1 25/106/1
f 24/95/19 23/94/19 27/7/19 28/5/19
f 25/106/20 26/108/20 30/2/20 29/1/20
f 37/109/1 38/110/1 42/111/1 41/10/1
f 34/4/2 31/3/2 35/97/2 38/110/2
f 33/8/3 34/4/3 38/110/3 37/109/3
f 32/6/4 33/8/4 37/109/4 36/96/4
f 36/96/1 37/109/1 41/10/1 40/9/1
f 38/110/1 35/97/1 39/13/1 42/111/1
f 35/97/1 36/96/1 40/9/1 39/13/1
f 42/111/4 39/13/4 43/14/4 46/112/4
f 41/10/10 42/111/10 46/112/10 45/11/10
f 49/113/10 52/114/10 51/115/10 47/116/10
f 48/117/2 70/118/2 69/119/2 47/116/2
f 77/17/10 81/120/10 82/121/10 78/19/10
f 52/114/21 62/122/21 61/123/21 51/115/21
f 56/124/4 58/66/4 57/65/4 55/125/4
f 54/126/3 56/124/3 55/125/3 53/127/3
f 64/128/22 68/70/22 66/69/22 62/122/22
f 54/126/23 64/128/23 62/122/23 52/114/23
f 51/115/24 61/123/24 63/129/24 53/127/24
f 53/127/25 63/129/25 64/128/25 54/126/25
f 63/129/10 67/71/10 68/70/10 64/128/10
f 61/123/26 65/72/26 67/71/26 63/129/26
f 62/122/3 66/69/3 65/72/3 61/123/3
f 69/119/27 73/21/27 75/15/27 71/130/27
f 47/116/28 69/119/28 71/130/28 49/113/28
f 49/113/2 71/130/2 72/131/2 50/132/2
f 70/118/29 74/20/29 73/21/29 69/119/29
f 71/130/30 75/15/30 76/18/30 72/131/30
f 83/133/2 87/26/2 88/134/2 84/135/2
f 80/16/1 84/135/1 81/120/1 77/17/1
f 79/22/3 83/133/3 84/135/3 80/16/3
f 78/19/5 82/121/5 83/133/5 79/22/5
f 82/121/2 86/23/2 87/26/2 83/133/2
f 84/135/2 88/134/2 85/27/2 81/120/2
f 81/120/2 85/27/2 86/23/2 82/121/2
f 88/134/5 92/136/5 89/28/5 85/27/5
f 87/26/10 91/25/10 92/136/10 88/134/10
f 95/137/10 98/138/10 97/139/10 93/140/10
f 94/141/4 116/142/4 115/143/4 93/140/4
f 123/31/10 127/144/10 128/145/10 124/33/10
f 98/138/31 108/146/31 107/147/31 97/139/31
f 102/148/2 104/74/2 103/73/2 101/149/2
f 100/150/3 102/148/3 101/149/3 99/151/3
f 110/152/26 114/78/26 112/77/26 108/146/26
f 100/150/32 110/152/32 108/146/32 98/138/32
f 97/139/33 107/147/33 109/153/33 99/151/33
f 99/151/34 109/153/34 110/152/34 100/150/34
f 109/153/10 113/79/10 114/78/10 110/152/10
f 107/147/22 111/80/22 113/79/22 109/153/22
f 108/146/3 112/77/3 111/80/3 107/147/3
f 115/143/35 119/35/35 121/29/35 117/154/35
f 93/140/36 115/143/36 117/154/36 95/137/36
f 95/137/4 117/154/4 118/155/4 96/156/4
f 116/142/30 120/34/30 119/35/30 115/143/30
f 117/154/29 121/29/29 122/32/29 118/155/29
f 129/157/4 133/40/4 134/158/4 130/159/4
f 126/30/5 130/159/5 127/144/5 123/31/5
f 125/36/3 129/157/3 130/159/3 126/30/3
f 124/33/1 128/145/1 129/157/1 125/36/1
f 128/145/4 132/37/4 133/40/4 129/157/4
f 130/159/4 134/158/4 131/41/4 127/144/4
f 127/144/4 131/41/4 132/37/4 128/145/4
f 134/158/1 138/160/1 135/42/1 131/41/1
f 133/40/10 137/39/10 138/160/10 134/158/10
f 141/161/10 139/162/10 143/163/10 144/164/10
f 140/165/5 139/162/5 161/166/5 162/167/5
f 169/45/10 170/48/10 174/168/10 173/169/10
f 144/164/37 143/163/37 153/170/37 154/171/37
f 148/172/1 147/173/1 149/81/1 150/84/1
f 146/174/3 145/175/3 147/173/3 148/172/3
f 156/176/16 154/171/16 158/85/16 160/88/16
f 146/174/38 144/164/38 154/171/38 156/176/38
f 143/163/39 145/175/39 155/177/39 153/170/39
f 145/175/40 146/174/40 156/176/40 155/177/40
f 155/177/10 156/176/10 160/88/10 159/87/10
f 153/170/12 155/177/12 159/87/12 157/86/12
f 154/171/3 153/170/3 157/86/3 158/85/3
f 161/166/41 163/178/41 167/43/41 165/49/41
f 139/162/42 141/161/42 163/178/42 161/166/42
f 141/161/5 142/179/5 164/180/5 163/178/5
f 162/167/20 161/166/20 165/49/20 166/47/20
f 163/178/19 164/180/19 168/44/19 167/43/19
f 175/181/5 176/182/5 180/183/5 179/52/5
f 172/46/4 169/45/4 173/169/4 176/182/4
f 171/50/3 172/46/3 176/182/3 175/181/3
f 170/48/2 171/50/2 175/181/2 174/168/2
f 174/168/5 175/181/5 179/52/5 178/51/5
f 176/182/5 173/169/5 177/55/5 180/183/5
f 173/169/5 174/168/5 178/51/5 177/55/5
f 180/183/2 177/55/2 181/56/2 184/184/2
f 179/52/10 180/183/10 184/184/10 183/53/10
usemtl Window
f 44/12/1 45/11/1 46/112/1 43/14/1
f 90/24/2 89/28/2 92/136/2 91/25/2
f 136/38/4 135/42/4 138/160/4 137/39/4
f 182/54/5 183/53/5 184/184/5 181/56/5
