# Blender v2.79 (sub 0) OBJ File: 'House.blend'
# www.blender.org
mtllib House.mtl
o Cube
v 1.413268 0.145489 -0.001092
v 1.413268 -1.133743 -0.001092
v -0.000946 0.145489 1.413122
v -0.000946 -1.133743 1.413122
v 1.523097 0.145489 -0.001092
v -0.000946 0.145489 1.522951
v 0.883918 0.826659 -0.001092
v -0.000946 0.826659 0.883773
v 0.766138 0.826659 -0.001092
v -0.000946 0.826659 0.765992
v 0.766138 0.750906 -0.001092
v -0.000946 0.750906 0.765992
v 1.362827 0.233631 0.086860
v 0.087006 0.233631 1.362682
v 0.869130 0.757400 0.097117
v 0.097262 0.757400 0.868985
v 1.293141 0.233631 0.017174
v 0.017320 0.233631 1.292996
v 0.799445 0.757400 0.027431
v 0.027576 0.757400 0.799299
v 1.332731 0.143797 0.079445
v 1.332731 -1.128480 0.079445
v 0.079590 0.143797 1.332586
v 0.079590 -1.128480 1.332586
v 1.275665 0.147217 0.024870
v 1.275665 -1.125059 0.024870
v 0.022525 0.147217 1.278011
v 0.022525 -1.125059 1.278011
v 0.190954 -0.725540 1.109581
v 1.107235 -0.725540 0.193300
v 1.107235 -0.061222 0.193300
v 0.190954 -0.061222 1.109581
v 0.230285 -0.725540 1.148911
v 1.146566 -0.725540 0.232630
v 1.146566 -0.061222 0.232630
v 0.230285 -0.061222 1.148911
v 0.324833 -0.610418 1.054363
v 1.052018 -0.610418 0.327178
v 1.052018 -0.174045 0.327178
v 0.324833 -0.174045 1.054363
v 0.291598 -0.610418 1.021129
v 1.018783 -0.610418 0.293943
v 1.018783 -0.174045 0.293943
v 0.291598 -0.174045 1.021129
v 1.272307 -1.133743 -0.001092
v -0.000946 -1.133743 1.259353
v -0.001014 -1.133743 0.215208
v -1.413268 0.145489 -0.001092
v -1.413268 -1.133743 -0.001092
v 0.000946 0.145489 1.413122
v 0.000946 -1.133743 1.413122
v -1.523097 0.145489 -0.001092
v 0.000946 0.145489 1.522951
v -0.883918 0.826659 -0.001092
v 0.000946 0.826659 0.883773
v -0.766138 0.826659 -0.001092
v 0.000946 0.826659 0.765992
v -0.766138 0.750906 -0.001092
v 0.000946 0.750906 0.765992
v -1.362827 0.233631 0.086860
v -0.087006 0.233631 1.362682
v -0.869130 0.757400 0.097117
v -0.097262 0.757400 0.868985
v -1.293141 0.233631 0.017174
v -0.017320 0.233631 1.292996
v -0.799445 0.757400 0.027431
v -0.027576 0.757400 0.799299
v -1.332731 0.143797 0.079445
v -1.332731 -1.128480 0.079445
v -0.079590 0.143797 1.332586
v -0.079590 -1.128480 1.332586
v -1.275665 0.147217 0.024870
v -1.275665 -1.125059 0.024870
v -0.022525 0.147217 1.278011
v -0.022525 -1.125059 1.278011
v -0.190954 -0.725540 1.109581
v -1.107235 -0.725540 0.193300
v -1.107235 -0.061222 0.193300
v -0.190954 -0.061222 1.109581
v -0.230285 -0.725540 1.148911
v -1.146566 -0.725540 0.232630
v -1.146566 -0.061222 0.232630
v -0.230285 -0.061222 1.148911
v -0.324833 -0.610418 1.054363
v -1.052018 -0.610418 0.327178
v -1.052018 -0.174045 0.327178
v -0.324833 -0.174045 1.054363
v -0.291598 -0.610418 1.021129
v -1.018783 -0.610418 0.293943
v -1.018783 -0.174045 0.293943
v -0.291598 -0.174045 1.021129
v -1.272307 -1.133743 -0.001092
v 0.000946 -1.133743 1.259353
v 0.000000 -1.133743 -0.001092
v 0.001014 -1.133743 0.215208
v 1.413268 0.145489 0.001092
v 1.413268 -1.133743 0.001092
v -0.000946 0.145489 -1.413122
v -0.000946 -1.133743 -1.413122
v 1.523097 0.145489 0.001092
v -0.000946 0.145489 -1.522951
v 0.883918 0.826659 0.001092
v -0.000946 0.826659 -0.883773
v 0.766138 0.826659 0.001092
v -0.000946 0.826659 -0.765992
v 0.766138 0.750906 0.001092
v -0.000946 0.750906 -0.765992
v 1.362827 0.233631 -0.086860
v 0.087006 0.233631 -1.362682
v 0.869130 0.757400 -0.097117
v 0.097262 0.757400 -0.868985
v 1.293141 0.233631 -0.017174
v 0.017320 0.233631 -1.292996
v 0.799445 0.757400 -0.027431
v 0.027576 0.757400 -0.799299
v 1.332731 0.143797 -0.079445
v 1.332731 -1.128480 -0.079445
v 0.079590 0.143797 -1.332586
v 0.079590 -1.128480 -1.332586
v 1.275665 0.147217 -0.024870
v 1.275665 -1.125059 -0.024870
v 0.022525 0.147217 -1.278011
v 0.022525 -1.125059 -1.278011
v 0.190954 -0.725540 -1.109581
v 1.107235 -0.725540 -0.193300
v 1.107235 -0.061222 -0.193300
v 0.190954 -0.061222 -1.109581
v 0.230285 -0.725540 -1.148911
v 1.146566 -0.725540 -0.232630
v 1.146566 -0.061222 -0.232630
v 0.230285 -0.061222 -1.148911
v 0.324833 -0.610418 -1.054363
v 1.052018 -0.610418 -0.327178
v 1.052018 -0.174045 -0.327178
v 0.324833 -0.174045 -1.054363
v 0.291598 -0.610418 -1.021129
v 1.018783 -0.610418 -0.293943
v 1.018783 -0.174045 -0.293943
v 0.291598 -0.174045 -1.021129
v 1.272307 -1.133743 0.001092
v -0.000946 -1.133743 -1.259353
v -0.001014 -1.133743 -0.215208
v -1.413268 0.145489 0.001092
v -1.413268 -1.133743 0.001092
v 0.000946 0.145489 -1.413122
v 0.000946 -1.133743 -1.413122
v -1.523097 0.145489 0.001092
v 0.000946 0.145489 -1.522951
v -0.883918 0.826659 0.001092
v 0.000946 0.826659 -0.883773
v -0.766138 0.826659 0.001092
v 0.000946 0.826659 -0.765992
v -0.766138 0.750906 0.001092
v 0.000946 0.750906 -0.765992
v 0.000000 0.753539 0.000000
v 0.000000 0.753539 0.000000
v -1.362827 0.233631 -0.086860
v -0.087006 0.233631 -1.362682
v -0.869130 0.757400 -0.097117
v -0.097262 0.757400 -0.868985
v -1.293141 0.233631 -0.017174
v -0.017320 0.233631 -1.292996
v -0.799445 0.757400 -0.027431
v -0.027576 0.757400 -0.799299
v -1.332731 0.143797 -0.079445
v -1.332731 -1.128480 -0.079445
v -0.079590 0.143797 -1.332586
v -0.079590 -1.128480 -1.332586
v -1.275665 0.147217 -0.024870
v -1.275665 -1.125059 -0.024870
v -0.022525 0.147217 -1.278011
v -0.022525 -1.125059 -1.278011
v -0.190954 -0.725540 -1.109581
v -1.107235 -0.725540 -0.193300
v -1.107235 -0.061222 -0.193300
v -0.190954 -0.061222 -1.109581
v -0.230285 -0.725540 -1.148911
v -1.146566 -0.725540 -0.232630
v -1.146566 -0.061222 -0.232630
v -0.230285 -0.061222 -1.148911
v -0.324833 -0.610418 -1.054363
v -1.052018 -0.610418 -0.327178
v -1.052018 -0.174045 -0.327178
v -0.324833 -0.174045 -1.054363
v -0.291598 -0.610418 -1.021129
v -1.018783 -0.610418 -0.293943
v -1.018783 -0.174045 -0.293943
v -0.291598 -0.174045 -1.021129
v -1.272307 -1.133743 0.001092
v 0.000946 -1.133743 -1.259353
v 0.000000 -1.133743 0.001092
v 0.001014 -1.133743 -0.215208
vt 0.000000 0.000000
vt 0.000000 0.000000
vt 0.000000 0.000000
vt 0.000000 0.000000
vt 0.000000 0.000000
vt 0.000000 0.000000
vt 0.000000 0.000000
vt 0.000000 0.000000
vt 0.000000 0.000000
vt 0.000000 0.000000
vt 0.000000 0.000000
vt 0.000000 0.000000
vt 0.000000 0.000000
vt 0.000000 0.000000
vt 0.000000 0.000000
vt 0.000000 0.000000
vt 0.000000 0.000000
vt 0.000000 0.000000
vt 0.000000 0.000000
vt 0.000000 0.000000
vt 0.000000 0.000000
vt 0.000000 0.000000
vt 0.000000 0.000000
vt 0.000000 0.000000
vt 0.000000 0.000000
vt 0.000000 0.000000
vt 0.000000 0.000000
vt 0.000000 0.000000
vt 0.000000 0.000000
vt 0.000000 0.000000
vt 0.000000 0.000000
vt 0.000000 0.000000
vt 0.000000 0.000000
vt 0.000000 0.000000
vt 0.000000 0.000000
vt 0.000000 0.000000
vt 0.000000 0.000000
vt 0.000000 0.000000
vt 0.000000 0.000000
vt 0.000000 0.000000
vt 0.000000 0.000000
vt 0.000000 0.000000
vt 0.000000 0.000000
vt 0.000000 0.000000
vt 0.000000 0.000000
vt 0.000000 0.000000
vt 0.000000 0.000000
vt 0.000000 0.000000
vt 0.000000 0.000000
vt 0.000000 0.000000
vt 0.000000 0.000000
vt 0.000000 0.000000
vt 0.000000 0.000000
vt 0.000000 0.000000
vt 0.000000 0.000000
vt 0.000000 0.000000
vt 0.000000 0.000000
vt 0.000000 0.000000
vt 0.000000 0.000000
vt 0.000000 0.000000
vt 0.000000 0.000000
vt 0.000000 0.000000
vt 0.000000 0.000000
vt 0.000000 0.000000
vt 0.000000 0.000000
vt 0.000000 0.000000
vt 0.000000 0.000000
vt 0.000000 0.000000
vt 0.000000 0.000000
vt 0.000000 0.000000
vt 0.000000 0.000000
vt 0.000000 0.000000
vt 0.000000 0.000000
vt 0.000000 0.000000
vt 0.000000 0.000000
vt 0.000000 0.000000
vt 0.000000 0.000000
vt 0.000000 0.000000
vt 0.000000 0.000000
vt 0.000000 0.000000
vt 0.000000 0.000000
vt 0.000000 0.000000
vt 0.000000 0.000000
vt 0.000000 0.000000
vt 0.000000 0.000000
vt 0.000000 0.000000
vt 0.000000 0.000000
vt 0.000000 0.000000
vt 0.000000 0.000000
vt 0.000000 0.000000
vt 0.000000 0.000000
vt 0.000000 0.000000
vt 0.000000 0.000000
vt 0.000000 0.000000
vt 0.000000 0.000000
vt 0.000000 0.000000
vt 0.000000 0.000000
vt 0.000000 0.000000
vt 0.000000 0.000000
vt 0.000000 0.000000
vt 0.000000 0.000000
vt 0.000000 0.000000
vt 0.000000 0.000000
vt 0.000000 0.000000
vt 0.000000 0.000000
vt 0.000000 0.000000
vt 0.000000 0.000000
vt 0.000000 0.000000
vt 0.000000 0.000000
vt 0.000000 0.000000
vt 0.000000 0.000000
vt 0.000000 0.000000
vt 0.000000 0.000000
vt 0.000000 0.000000
vt 0.000000 0.000000
vt 0.000000 0.000000
vt 0.000000 0.000000
vt 0.000000 0.000000
vt 0.000000 0.000000
vt 0.000000 0.000000
vt 0.000000 0.000000
vt 0.000000 0.000000
vt 0.000000 0.000000
vt 0.000000 0.000000
vt 0.000000 0.000000
vt 0.000000 0.000000
vt 0.000000 0.000000
vt 0.000000 0.000000
vt 0.000000 0.000000
vt 0.000000 0.000000
vt 0.000000 0.000000
vt 0.000000 0.000000
vt 0.000000 0.000000
vt 0.000000 0.000000
vt 0.000000 0.000000
vt 0.000000 0.000000
vt 0.000000 0.000000
vt 0.000000 0.000000
vt 0.000000 0.000000
vt 0.000000 0.000000
vt 0.000000 0.000000
vt 0.000000 0.000000
vt 0.000000 0.000000
vt 0.000000 0.000000
vt 0.000000 0.000000
vt 0.000000 0.000000
vt 0.000000 0.000000
vt 0.000000 0.000000
vt 0.000000 0.000000
vt 0.000000 0.000000
vt 0.000000 0.000000
vt 0.000000 0.000000
vt 0.000000 0.000000
vt 0.000000 0.000000
vt 0.000000 0.000000
vt 0.000000 0.000000
vt 0.000000 0.000000
vt 0.000000 0.000000
vt 0.000000 0.000000
vt 0.000000 0.000000
vt 0.000000 0.000000
vt 0.000000 0.000000
vt 0.000000 0.000000
vt 0.000000 0.000000
vt 0.000000 0.000000
vt 0.000000 0.000000
vt 0.000000 0.000000
vt 0.000000 0.000000
vt 0.000000 0.000000
vt 0.000000 0.000000
vt 0.000000 0.000000
vt 0.000000 0.000000
vt 0.000000 0.000000
vt 0.000000 0.000000
vt 0.000000 0.000000
vt 0.000000 0.000000
vt 0.000000 0.000000
vt 0.000000 0.000000
vt 0.000000 0.000000
vt 0.000000 0.000000
vt 0.000000 0.000000
vt 0.000000 0.000000
vt 0.000000 0.000000
vt 0.000000 0.000000
vt 0.000000 0.000000
vt 0.000000 0.000000
vt 0.000000 0.000000
vt 0.000000 0.000000
vt 0.000000 0.000000
vt 0.000000 0.000000
vt 0.000000 0.000000
vt 0.000000 0.000000
vn 0.7071 0.0000 0.7071
vn 0.0000 -1.0000 0.0000
vn -0.7071 0.0000 0.7071
vn 0.7071 0.0000 -0.7071
vn -0.7071 0.0000 -0.7071
vn 0.0034 1.0000 0.0034
vn 0.5921 0.5466 0.5921
vn -0.0034 1.0000 0.0034
vn -0.5921 0.5466 0.5921
vn 0.0034 1.0000 -0.0034
vn 0.5921 0.5466 -0.5921
vn -0.0034 1.0000 -0.0034
vn -0.5921 0.5466 -0.5921
vn 0.6116 0.5018 0.6116
vn 0.0000 1.0000 -0.0000
vn 0.5846 -0.5625 -0.5846
vn 0.5259 0.5802 0.6219
vn 0.6219 0.5802 0.5259
vn 0.5383 0.6484 0.5383
vn -0.5846 -0.5625 0.5846
vn -0.0306 -0.9991 -0.0306
vn 0.7071 0.0001 0.7071
vn -0.6912 0.0000 0.7227
vn 0.6912 0.0000 -0.7227
vn -0.0442 -0.9942 0.0982
vn 0.1062 -0.9933 -0.0454
vn 0.2292 -0.9457 0.2303
vn -0.6116 0.5018 0.6116
vn -0.5846 -0.5625 -0.5846
vn -0.5259 0.5802 0.6219
vn -0.6219 0.5802 0.5259
vn -0.5383 0.6484 0.5383
vn 0.5846 -0.5625 0.5846
vn 0.0306 -0.9991 -0.0306
vn -0.7071 0.0001 0.7071
vn 0.6912 0.0000 0.7227
vn -0.6912 0.0000 -0.7227
vn 0.0442 -0.9942 0.0982
vn -0.1062 -0.9933 -0.0454
vn -0.2292 -0.9457 0.2303
vn 0.6116 0.5018 -0.6116
vn 0.5259 0.5802 -0.6219
vn 0.6219 0.5802 -0.5259
vn 0.5383 0.6484 -0.5383
vn -0.0306 -0.9991 0.0306
vn 0.7071 0.0001 -0.7071
vn -0.0442 -0.9942 -0.0982
vn 0.1062 -0.9933 0.0454
vn 0.2292 -0.9457 -0.2303
vn -0.6116 0.5018 -0.6116
vn -0.5259 0.5802 -0.6219
vn -0.6219 0.5802 -0.5259
vn -0.5383 0.6484 -0.5383
vn 0.0306 -0.9991 0.0306
vn -0.7071 0.0001 -0.7071
vn 0.0442 -0.9942 -0.0982
vn -0.1062 -0.9933 0.0454
vn -0.2292 -0.9457 -0.2303
usemtl BaseRed
s off
f 27/1/1 28/2/1 29/3/1 32/4/1
f 28/2/1 26/5/1 30/6/1 29/3/1
f 25/7/1 27/1/1 32/4/1 31/8/1
f 26/5/1 25/7/1 31/8/1 30/6/1
f 45/9/2 46/10/2 47/11/2 94/12/2
f 74/13/3 79/14/3 76/15/3 75/16/3
f 75/16/3 76/15/3 77/17/3 73/18/3
f 72/19/3 78/20/3 79/14/3 74/13/3
f 73/18/3 77/17/3 78/20/3 72/19/3
f 92/21/2 94/12/2 95/22/2 93/23/2
f 122/24/4 127/25/4 124/26/4 123/27/4
f 123/27/4 124/26/4 125/28/4 121/29/4
f 120/30/4 126/31/4 127/25/4 122/24/4
f 121/29/4 125/28/4 126/31/4 120/30/4
f 140/32/2 191/33/2 142/34/2 141/35/2
f 171/36/5 172/37/5 173/38/5 176/39/5
f 172/37/5 170/40/5 174/41/5 173/38/5
f 169/42/5 171/36/5 176/39/5 175/43/5
f 170/40/5 169/42/5 175/43/5 174/41/5
f 189/44/2 190/45/2 192/46/2 191/33/2
usemtl RoofRed
f 11/47/6 155/48/6 156/49/6 12/50/6
f 18/51/7 17/52/7 19/53/7 20/54/7
f 58/55/8 59/56/8 156/49/8 155/48/8
f 65/57/9 67/58/9 66/59/9 64/60/9
f 106/61/10 107/62/10 156/49/10 155/48/10
f 113/63/11 115/64/11 114/65/11 112/66/11
f 153/67/12 155/48/12 156/49/12 154/68/12
f 162/69/13 161/70/13 163/71/13 164/72/13
usemtl DetailsRed
f 3/73/2 1/74/2 5/75/2 6/76/2
f 2/77/1 1/74/1 21/78/1 22/79/1
f 29/3/2 30/6/2 34/80/2 33/81/2
f 6/76/14 5/75/14 13/82/14 14/83/14
f 10/84/5 9/85/5 11/47/5 12/50/5
f 8/86/15 7/87/15 9/85/15 10/84/15
f 16/88/16 14/83/16 18/51/16 20/54/16
f 8/86/17 6/76/17 14/83/17 16/88/17
f 5/75/18 7/87/18 15/89/18 13/82/18
f 7/87/19 8/86/19 16/88/19 15/89/19
f 15/89/2 16/88/2 20/54/2 19/53/2
f 13/82/20 15/89/20 19/53/20 17/52/20
f 14/83/15 13/82/15 17/52/15 18/51/15
f 21/78/21 23/90/21 27/1/21 25/7/21
f 1/74/22 3/73/22 23/90/22 21/78/22
f 3/73/1 4/91/1 24/92/1 23/90/1
f 22/79/23 21/78/23 25/7/23 26/5/23
f 23/90/24 24/92/24 28/2/24 27/1/24
f 35/93/1 36/94/1 40/95/1 39/96/1
f 32/4/3 29/3/3 33/81/3 36/94/3
f 31/8/15 32/4/15 36/94/15 35/93/15
f 30/6/4 31/8/4 35/93/4 34/80/4
f 38/97/3 39/96/3 43/98/3 42/99/3
f 34/80/1 35/93/1 39/96/1 38/97/1
f 36/94/1 33/81/1 37/100/1 40/95/1
f 33/81/1 34/80/1 38/97/1 37/100/1
f 40/95/4 37/100/4 41/101/4 44/102/4
f 37/100/15 38/97/15 42/99/15 41/101/15
f 39/96/2 40/95/2 44/102/2 43/98/2
f 2/77/25 22/79/25 26/5/25 45/9/25
f 4/91/26 46/10/26 28/2/26 24/92/26
f 28/2/27 46/10/27 45/9/27 26/5/27
f 50/103/2 53/104/2 52/105/2 48/106/2
f 49/107/3 69/108/3 68/109/3 48/106/3
f 76/15/2 80/110/2 81/111/2 77/17/2
f 53/104/28 61/112/28 60/113/28 52/105/28
f 57/114/4 59/56/4 58/55/4 56/115/4
f 55/116/15 57/114/15 56/115/15 54/117/15
f 63/118/29 67/58/29 65/57/29 61/112/29
f 55/116/30 63/118/30 61/112/30 53/104/30
f 52/105/31 60/113/31 62/119/31 54/117/31
f 54/117/32 62/119/32 63/118/32 55/116/32
f 62/119/2 66/59/2 67/58/2 63/118/2
f 60/113/33 64/60/33 66/59/33 62/119/33
f 61/112/15 65/57/15 64/60/15 60/113/15
f 68/109/34 72/19/34 74/13/34 70/120/34
f 48/106/35 68/109/35 70/120/35 50/103/35
f 50/103/3 70/120/3 71/121/3 51/122/3
f 69/108/36 73/18/36 72/19/36 68/109/36
f 70/120/37 74/13/37 75/16/37 71/121/37
f 82/123/3 86/124/3 87/125/3 83/126/3
f 79/14/1 83/126/1 80/110/1 76/15/1
f 78/20/15 82/123/15 83/126/15 79/14/15
f 77/17/5 81/111/5 82/123/5 78/20/5
f 85/127/1 89/128/1 90/129/1 86/124/1
f 81/111/3 85/127/3 86/124/3 82/123/3
f 83/126/3 87/125/3 84/130/3 80/110/3
f 80/110/3 84/130/3 85/127/3 81/111/3
f 87/125/5 91/131/5 88/132/5 84/130/5
f 84/130/15 88/132/15 89/128/15 85/127/15
f 86/124/2 90/129/2 91/131/2 87/125/2
f 49/107/38 92/21/38 73/18/38 69/108/38
f 51/122/39 71/121/39 75/16/39 93/23/39
f 75/16/40 73/18/40 92/21/40 93/23/40
f 98/133/2 101/134/2 100/135/2 96/136/2
f 97/137/4 117/138/4 116/139/4 96/136/4
f 124/26/2 128/140/2 129/141/2 125/28/2
f 101/134/41 109/142/41 108/143/41 100/135/41
f 105/144/3 107/62/3 106/61/3 104/145/3
f 103/146/15 105/144/15 104/145/15 102/147/15
f 111/148/33 115/64/33 113/63/33 109/142/33
f 103/146/42 111/148/42 109/142/42 101/134/42
f 100/135/43 108/143/43 110/149/43 102/147/43
f 102/147/44 110/149/44 111/148/44 103/146/44
f 110/149/2 114/65/2 115/64/2 111/148/2
f 108/143/29 112/66/29 114/65/29 110/149/29
f 109/142/15 113/63/15 112/66/15 108/143/15
f 116/139/45 120/30/45 122/24/45 118/150/45
f 96/136/46 116/139/46 118/150/46 98/133/46
f 98/133/4 118/150/4 119/151/4 99/152/4
f 117/138/37 121/29/37 120/30/37 116/139/37
f 118/150/36 122/24/36 123/27/36 119/151/36
f 130/153/4 134/154/4 135/155/4 131/156/4
f 127/25/5 131/156/5 128/140/5 124/26/5
f 126/31/15 130/153/15 131/156/15 127/25/15
f 125/28/1 129/141/1 130/153/1 126/31/1
f 133/157/5 137/158/5 138/159/5 134/154/5
f 129/141/4 133/157/4 134/154/4 130/153/4
f 131/156/4 135/155/4 132/160/4 128/140/4
f 128/140/4 132/160/4 133/157/4 129/141/4
f 135/155/1 139/161/1 136/162/1 132/160/1
f 132/160/15 136/162/15 137/158/15 133/157/15
f 134/154/2 138/159/2 139/161/2 135/155/2
f 97/137/47 140/32/47 121/29/47 117/138/47
f 99/152/48 119/151/48 123/27/48 141/35/48
f 123/27/49 121/29/49 140/32/49 141/35/49
f 145/163/2 143/164/2 147/165/2 148/166/2
f 144/167/5 143/164/5 165/168/5 166/169/5
f 173/38/2 174/41/2 178/170/2 177/171/2
f 148/166/50 147/165/50 157/172/50 158/173/50
f 152/174/1 151/175/1 153/67/1 154/68/1
f 150/176/15 149/177/15 151/175/15 152/174/15
f 160/178/20 158/173/20 162/69/20 164/72/20
f 150/176/51 148/166/51 158/173/51 160/178/51
f 147/165/52 149/177/52 159/179/52 157/172/52
f 149/177/53 150/176/53 160/178/53 159/179/53
f 159/179/2 160/178/2 164/72/2 163/71/2
f 157/172/16 159/179/16 163/71/16 161/70/16
f 158/173/15 157/172/15 161/70/15 162/69/15
f 165/168/54 167/180/54 171/36/54 169/42/54
f 143/164/55 145/163/55 167/180/55 165/168/55
f 145/163/5 146/181/5 168/182/5 167/180/5
f 166/169/24 165/168/24 169/42/24 170/40/24
f 167/180/23 168/182/23 172/37/23 171/36/23
f 179/183/5 180/184/5 184/185/5 183/186/5
f 176/39/4 173/38/4 177/171/4 180/184/4
f 175/43/15 176/39/15 180/184/15 179/183/15
f 174/41/3 175/43/3 179/183/3 178/170/3
f 182/187/4 183/186/4 187/188/4 186/189/4
f 178/170/5 179/183/5 183/186/5 182/187/5
f 180/184/5 177/171/5 181/190/5 184/185/5
f 177/171/5 178/170/5 182/187/5 181/190/5
f 184/185/3 181/190/3 185/191/3 188/192/3
f 181/190/15 182/187/15 186/189/15 185/191/15
f 183/186/2 184/185/2 188/192/2 187/188/2
f 144/167/56 166/169/56 170/40/56 189/44/56
f 146/181/57 190/45/57 172/37/57 168/182/57
f 172/37/58 190/45/58 189/44/58 170/40/58
usemtl Window
f 42/99/1 43/98/1 44/102/1 41/101/1
f 89/128/3 88/132/3 91/131/3 90/129/3
f 137/158/4 136/162/4 139/161/4 138/159/4
f 186/189/5 187/188/5 188/192/5 185/191/5
