# Blender v2.79 (sub 0) OBJ File: 'Silo.blend'
# www.blender.org
mtllib Silo.mtl
o Cube
v -0.005090 -0.008348 -0.999851
v 0.190000 -0.008348 -0.980637
v 0.377593 -0.008348 -0.923731
v 0.550480 -0.008348 -0.831321
v 0.702016 -0.008348 -0.706958
v 0.826379 -0.008348 -0.555421
v 0.918789 -0.008348 -0.382535
v 0.975695 -0.008348 -0.194941
v 0.994910 -0.008348 0.000149
v 0.975695 -0.008348 0.195239
v -0.006077 -0.008348 -0.932947
v 0.826379 -0.008348 0.555719
v 0.702016 -0.008348 0.707255
v 0.550480 -0.008348 0.831618
v 0.377593 -0.008348 0.924028
v 0.190000 -0.008348 0.980934
v -0.005091 -0.008348 1.000149
v -0.200181 -0.008348 0.980934
v -0.387774 -0.008348 0.924028
v -0.560661 -0.008348 0.831618
v -0.712198 -0.008348 0.707255
v -0.836560 -0.008348 0.555718
v -0.928970 -0.008348 0.382832
v -0.985876 -0.008348 0.195238
v -1.005090 -0.008348 0.000148
v -0.985875 -0.008348 -0.194942
v -0.928969 -0.008348 -0.382536
v -0.836559 -0.008348 -0.555422
v -0.712196 -0.008348 -0.706959
v -0.560659 -0.008348 -0.831322
v -0.387772 -0.008348 -0.923731
v -0.200179 -0.008348 -0.980637
v -0.005090 -0.008348 -0.999851
v -0.005090 0.274097 -0.846604
v 0.190000 -0.008348 -0.980637
v 0.160103 0.274097 -0.830334
v 0.377593 -0.008348 -0.923731
v 0.318948 0.274097 -0.782149
v 0.550480 -0.008348 -0.831321
v 0.465340 0.274097 -0.703900
v 0.702016 -0.008348 -0.706958
v 0.593654 0.274097 -0.598596
v 0.826379 -0.008348 -0.555421
v 0.698959 0.274097 -0.470282
v 0.918789 -0.008348 -0.382535
v 0.777207 0.274097 -0.323890
v 0.975695 -0.008348 -0.194941
v 0.825392 0.274097 -0.165044
v 0.994910 -0.008348 0.000149
v 0.841662 0.274097 0.000149
v 0.975695 -0.008348 0.195239
v 0.825392 0.274097 0.165342
v 0.918789 -0.008348 0.382832
v 0.777207 0.274097 0.324187
v 0.826379 -0.008348 0.555719
v 0.698959 0.274097 0.470579
v 0.702016 -0.008348 0.707255
v 0.593654 0.274097 0.598893
v 0.550480 -0.008348 0.831618
v 0.465340 0.274097 0.704198
v 0.377593 -0.008348 0.924028
v 0.318948 0.274097 0.782446
v 0.190000 -0.008348 0.980934
v 0.160103 0.274097 0.830631
v -0.005091 -0.008348 1.000149
v -0.005091 0.274097 0.846901
v -0.200181 -0.008348 0.980934
v -0.170284 0.274097 0.830631
v -0.387774 -0.008348 0.924028
v -0.329129 0.274097 0.782446
v -0.560661 -0.008348 0.831618
v -0.475521 0.274097 0.704198
v -0.712198 -0.008348 0.707255
v -0.603835 0.274097 0.598893
v -0.836560 -0.008348 0.555718
v -0.709140 0.274097 0.470579
v -0.928970 -0.008348 0.382832
v -0.787388 0.274097 0.324186
v -0.985876 -0.008348 0.195238
v -0.835573 0.274097 0.165341
v -1.005090 -0.008348 0.000148
v -0.851843 0.274097 0.000148
v -0.985875 -0.008348 -0.194942
v -0.835573 0.274097 -0.165045
v -0.928969 -0.008348 -0.382536
v -0.787388 0.274097 -0.323890
v -0.836559 -0.008348 -0.555422
v -0.709139 0.274097 -0.470283
v -0.712196 -0.008348 -0.706959
v -0.603834 0.274097 -0.598596
v -0.560659 -0.008348 -0.831322
v -0.475520 0.274097 -0.703901
v -0.387772 -0.008348 -0.923731
v -0.329127 0.274097 -0.782149
v -0.200179 -0.008348 -0.980637
v -0.170282 0.274097 -0.830334
v -0.005090 0.274097 -0.671332
v 0.125909 0.274097 -0.658430
v 0.251874 0.274097 -0.620219
v 0.367965 0.274097 -0.558167
v 0.469719 0.274097 -0.474660
v 0.553226 0.274097 -0.372906
v 0.615277 0.274097 -0.256816
v 0.653488 0.274097 -0.130851
v 0.666391 0.274097 0.000149
v 0.653488 0.274097 0.131148
v 0.615277 0.274097 0.257113
v 0.553226 0.274097 0.373204
v 0.469719 0.274097 0.474957
v 0.367965 0.274097 0.558465
v 0.251874 0.274097 0.620516
v 0.125909 0.274097 0.658728
v -0.005091 0.274097 0.671630
v -0.136090 0.274097 0.658727
v -0.262055 0.274097 0.620516
v -0.378146 0.274097 0.558465
v -0.479899 0.274097 0.474957
v -0.563407 0.274097 0.373203
v -0.625458 0.274097 0.257113
v -0.663669 0.274097 0.131148
v -0.676571 0.274097 0.000148
v -0.663669 0.274097 -0.130851
v -0.625458 0.274097 -0.256817
v -0.563406 0.274097 -0.372907
v -0.479898 0.274097 -0.474661
v -0.378144 0.274097 -0.558168
v -0.262054 0.274097 -0.620219
v -0.136089 0.274097 -0.658430
v -0.005090 0.189796 -0.671332
v 0.125909 0.189796 -0.658430
v 0.251874 0.189796 -0.620219
v 0.367965 0.189796 -0.558167
v 0.469719 0.189796 -0.474660
v 0.553226 0.189796 -0.372906
v 0.615277 0.189796 -0.256816
v 0.653488 0.189796 -0.130851
v 0.666391 0.189796 0.000149
v 0.653488 0.189796 0.131148
v 0.615277 0.189796 0.257113
v 0.553226 0.189796 0.373204
v 0.469719 0.189796 0.474957
v 0.367965 0.189796 0.558465
v 0.251874 0.189796 0.620516
v 0.125909 0.189796 0.658728
v -0.005091 0.189796 0.671630
v -0.136090 0.189796 0.658727
v -0.262055 0.189796 0.620516
v -0.378146 0.189796 0.558465
v -0.479899 0.189796 0.474957
v -0.563407 0.189796 0.373203
v -0.625458 0.189796 0.257113
v -0.663669 0.189796 0.131148
v -0.676571 0.189796 0.000148
v -0.663669 0.189796 -0.130851
v -0.625458 0.189796 -0.256817
v -0.563406 0.189796 -0.372907
v -0.479898 0.189796 -0.474661
v -0.378144 0.189796 -0.558168
v -0.262054 0.189796 -0.620219
v -0.136089 0.189796 -0.658430
v -0.005090 0.189796 -0.666267
v 0.124921 0.189796 -0.653462
v 0.249936 0.189796 -0.615539
v 0.365150 0.189796 -0.553956
v 0.466137 0.189796 -0.471078
v 0.549014 0.189796 -0.370092
v 0.610597 0.189796 -0.254878
v 0.648520 0.189796 -0.129863
v 0.661325 0.189796 0.000149
v 0.648520 0.189796 0.130160
v 0.610597 0.189796 0.255175
v 0.549014 0.189796 0.370389
v 0.466137 0.189796 0.471376
v 0.365150 0.189796 0.554253
v 0.249936 0.189796 0.615837
v 0.124921 0.189796 0.653760
v -0.005091 0.189796 0.666564
v -0.135102 0.189796 0.653759
v -0.260117 0.189796 0.615836
v -0.375331 0.189796 0.554253
v -0.476318 0.189796 0.471375
v -0.559195 0.189796 0.370389
v -0.620778 0.189796 0.255175
v -0.658701 0.189796 0.130159
v -0.671506 0.189796 0.000148
v -0.658701 0.189796 -0.129863
v -0.620778 0.189796 -0.254878
v -0.559194 0.189796 -0.370093
v -0.476317 0.189796 -0.471079
v -0.375330 0.189796 -0.553956
v -0.260116 0.189796 -0.615540
v -0.135101 0.189796 -0.653462
v 0.175881 -0.008348 -0.915025
v 0.350846 -0.008348 -0.861950
v 0.512095 -0.008348 -0.775760
v 0.653431 -0.008348 -0.659769
v 0.769423 -0.008348 -0.518433
v 0.855612 -0.008348 -0.357184
v 0.908688 -0.008348 -0.182218
v 0.926609 -0.008348 -0.000260
v 0.908688 -0.008348 0.181698
v 0.769423 -0.008348 0.517913
v 0.653431 -0.008348 0.659249
v 0.512095 -0.008348 0.775240
v 0.350846 -0.008348 0.861430
v 0.175880 -0.008348 0.914505
v -0.006078 -0.008348 0.932426
v -0.188036 -0.008348 0.914505
v -0.363002 -0.008348 0.861430
v -0.524251 -0.008348 0.775240
v -0.665587 -0.008348 0.659248
v -0.781578 -0.008348 0.517912
v -0.867768 -0.008348 0.356663
v -0.920843 -0.008348 0.181697
v -0.938764 -0.008348 -0.000261
v -0.920842 -0.008348 -0.182219
v -0.867767 -0.008348 -0.357185
v -0.781577 -0.008348 -0.518434
v -0.665586 -0.008348 -0.659770
v -0.524249 -0.008348 -0.775761
v -0.363000 -0.008348 -0.861951
v -0.188034 -0.008348 -0.915026
v -0.006077 -0.008348 -0.932947
v 0.175881 -0.008348 -0.915025
v 0.350846 -0.008348 -0.861950
v 0.512095 -0.008348 -0.775760
v 0.653431 -0.008348 -0.659769
v 0.769423 -0.008348 -0.518433
v 0.855612 -0.008348 -0.357184
v 0.908688 -0.008348 -0.182218
v 0.926609 -0.008348 -0.000260
v 0.908688 -0.008348 0.181698
v 0.855612 -0.008348 0.356663
v 0.769423 -0.008348 0.517913
v 0.653431 -0.008348 0.659249
v 0.512095 -0.008348 0.775240
v 0.350846 -0.008348 0.861430
v 0.175880 -0.008348 0.914505
v -0.006078 -0.008348 0.932426
v -0.188036 -0.008348 0.914505
v -0.363002 -0.008348 0.861430
v -0.524251 -0.008348 0.775240
v -0.665587 -0.008348 0.659248
v -0.781578 -0.008348 0.517912
v -0.867768 -0.008348 0.356663
v -0.920843 -0.008348 0.181697
v -0.938764 -0.008348 -0.000261
v -0.920842 -0.008348 -0.182219
v -0.867767 -0.008348 -0.357185
v -0.781577 -0.008348 -0.518434
v -0.665586 -0.008348 -0.659770
v -0.524249 -0.008348 -0.775761
v -0.363000 -0.008348 -0.861951
v -0.188034 -0.008348 -0.915026
vt 0.980583 0.645042
vt 0.999851 0.548540
vt 0.999851 0.548540
vt 0.980583 0.645042
vt 0.999900 0.450065
vt 0.868560 0.461541
vt 0.854068 0.390415
vt 0.980595 0.353488
vt 0.825958 0.323501
vt 0.942803 0.262591
vt 0.785332 0.263373
vt 0.888020 0.180856
vt 0.733766 0.212329
vt 0.818379 0.111398
vt 0.673247 0.172317
vt 0.736565 0.056854
vt 0.606097 0.144862
vt 0.645713 0.019289
vt 0.534885 0.131011
vt 0.549292 0.000127
vt 0.462335 0.131293
vt 0.450980 0.000100
vt 0.391225 0.145702
vt 0.354530 0.019214
vt 0.324278 0.173693
vt 0.263627 0.056754
vt 0.264061 0.214204
vt 0.181751 0.111302
vt 0.212892 0.265692
vt 0.112048 0.180796
vt 0.172747 0.326194
vt 0.057214 0.262603
vt 0.145184 0.393396
vt 0.019393 0.353609
vt 0.131280 0.464736
vt 0.000100 0.450320
vt 0.131527 0.537489
vt 0.000131 0.548964
vt 0.146102 0.608440
vt 0.019519 0.645505
vt 0.174103 0.675322
vt 0.057293 0.736291
vt 0.214698 0.735478
vt 0.112027 0.817985
vt 0.266259 0.786548
vt 0.181625 0.887480
vt 0.326797 0.826584
vt 0.263444 0.942093
vt 0.393988 0.854051
vt 0.354357 0.979720
vt 0.465257 0.867895
vt 0.450885 0.998909
vt 0.537869 0.867577
vt 0.549333 0.998909
vt 0.609043 0.853101
vt 0.645927 0.979694
vt 0.676063 0.825002
vt 0.736942 0.941968
vt 0.736405 0.784386
vt 0.818820 0.887184
vt 0.787319 0.732891
vt 0.888319 0.817592
vt 0.827426 0.672499
vt 0.942915 0.735878
vt 0.854966 0.605357
vt 0.207610 0.472269
vt 0.208039 0.529727
vt 0.868857 0.534123
vt 0.273929 0.687014
vt 0.241595 0.639374
vt 0.294220 0.610674
vt 0.319916 0.648617
vt 0.530493 0.791309
vt 0.586895 0.779728
vt 0.758381 0.359490
vt 0.726077 0.311855
vt 0.312454 0.273553
vt 0.271949 0.314461
vt 0.314919 0.727441
vt 0.363007 0.759107
vt 0.760076 0.636288
vt 0.781785 0.582959
vt 0.527199 0.207180
vt 0.469634 0.207503
vt 0.219065 0.586271
vt 0.639913 0.757362
vt 0.685104 0.271434
vt 0.240211 0.362487
vt 0.416351 0.780794
vt 0.792687 0.526440
vt 0.413234 0.219033
vt 0.687468 0.725078
vt 0.637038 0.239770
vt 0.218478 0.415783
vt 0.472906 0.791668
vt 0.792347 0.468885
vt 0.780763 0.412510
vt 0.360162 0.241334
vt 0.728387 0.684504
vt 0.583722 0.218076
vt 0.609225 0.292828
vt 0.566779 0.275534
vt 0.352533 0.680812
vt 0.521771 0.266838
vt 0.390811 0.706032
vt 0.475930 0.267075
vt 0.433280 0.723308
vt 0.431016 0.276237
vt 0.478309 0.731977
vt 0.388752 0.293974
vt 0.524161 0.731707
vt 0.350760 0.319607
vt 0.569080 0.722524
vt 0.318503 0.352153
vt 0.611341 0.704784
vt 0.293223 0.390362
vt 0.649337 0.679168
vt 0.275895 0.432764
vt 0.732806 0.475211
vt 0.723618 0.430352
vt 0.681667 0.646622
vt 0.267180 0.477723
vt 0.705807 0.388161
vt 0.706993 0.608408
vt 0.267389 0.523518
vt 0.680099 0.350241
vt 0.724330 0.565984
vt 0.276476 0.568436
vt 0.647487 0.318052
vt 0.733043 0.521009
vt 0.736565 0.056854
vt 0.818379 0.111398
vt 0.000000 0.000000
vt 0.000000 0.000000
vt 0.000000 0.000000
vt 0.000000 0.000000
vt 0.019393 0.353609
vt 0.057214 0.262603
vt 0.000000 0.000000
vt 0.000000 0.000000
vt 0.450885 0.998909
vt 0.354357 0.979720
vt 0.000000 0.000000
vt 0.000000 0.000000
vt 0.999900 0.450065
vt 0.645713 0.019289
vt 0.000000 0.000000
vt 0.000000 0.000000
vt 0.000100 0.450320
vt 0.000000 0.000000
vt 0.000000 0.000000
vt 0.549333 0.998909
vt 0.000000 0.000000
vt 0.000000 0.000000
vt 0.549292 0.000127
vt 0.000000 0.000000
vt 0.000000 0.000000
vt 0.000131 0.548964
vt 0.000000 0.000000
vt 0.000000 0.000000
vt 0.000000 0.000000
vt 0.000000 0.000000
vt 0.000000 0.000000
vt 0.000000 0.000000
vt 0.645927 0.979694
vt 0.000000 0.000000
vt 0.000000 0.000000
vt 0.000000 0.000000
vt 0.000000 0.000000
vt 0.450980 0.000100
vt 0.000000 0.000000
vt 0.000000 0.000000
vt 0.000000 0.000000
vt 0.000000 0.000000
vt 0.019519 0.645505
vt 0.000000 0.000000
vt 0.000000 0.000000
vt 0.000000 0.000000
vt 0.000000 0.000000
vt 0.736942 0.941968
vt 0.000000 0.000000
vt 0.000000 0.000000
vt 0.000000 0.000000
vt 0.000000 0.000000
vt 0.354530 0.019214
vt 0.000000 0.000000
vt 0.000000 0.000000
vt 0.057293 0.736291
vt 0.980595 0.353488
vt 0.000000 0.000000
vt 0.000000 0.000000
vt 0.818820 0.887184
vt 0.000000 0.000000
vt 0.000000 0.000000
vt 0.263627 0.056754
vt 0.000000 0.000000
vt 0.000000 0.000000
vt 0.112027 0.817985
vt 0.888319 0.817592
vt 0.942803 0.262591
vt 0.181751 0.111302
vt 0.000000 0.000000
vt 0.000000 0.000000
vt 0.000000 0.000000
vt 0.000000 0.000000
vt 0.181625 0.887480
vt 0.000000 0.000000
vt 0.000000 0.000000
vt 0.942915 0.735878
vt 0.888020 0.180856
vt 0.000000 0.000000
vt 0.000000 0.000000
vt 0.112048 0.180796
vt 0.000000 0.000000
vt 0.000000 0.000000
vt 0.263444 0.942093
vt 0.000000 0.000000
vt 0.000000 0.000000
vt 0.000000 0.000000
vt 0.000000 0.000000
vt 0.000000 0.000000
vt 0.000000 0.000000
vt 0.391644 0.704444
vt 0.433787 0.721590
vt 0.721903 0.430884
vt 0.731019 0.475398
vt 0.731253 0.520843
vt 0.722607 0.565470
vt 0.705408 0.607563
vt 0.680281 0.645481
vt 0.648205 0.677779
vt 0.610496 0.703209
vt 0.568553 0.720815
vt 0.523975 0.729927
vt 0.478473 0.730195
vt 0.353661 0.679417
vt 0.321296 0.647470
vt 0.295801 0.609823
vt 0.278194 0.567916
vt 0.269174 0.523347
vt 0.268962 0.477896
vt 0.277608 0.433276
vt 0.294804 0.391196
vt 0.319891 0.353280
vt 0.351902 0.320983
vt 0.389603 0.295548
vt 0.431545 0.277947
vt 0.476116 0.268856
vt 0.521606 0.268622
vt 0.566269 0.277252
vt 0.608391 0.294414
vt 0.646359 0.319445
vt 0.678720 0.351388
vt 0.704231 0.389019
vn 0.0000 -1.0000 0.0000
vn 0.0862 0.4751 -0.8757
vn 0.2554 0.4751 -0.8420
vn 0.4148 0.4751 -0.7760
vn 0.5582 0.4751 -0.6802
vn 0.6802 0.4751 -0.5582
vn 0.7760 0.4751 -0.4148
vn 0.8420 0.4751 -0.2554
vn 0.8757 0.4751 -0.0862
vn 0.8757 0.4751 0.0862
vn 0.8420 0.4751 0.2554
vn 0.7760 0.4751 0.4148
vn 0.6802 0.4751 0.5582
vn 0.5582 0.4751 0.6802
vn 0.4148 0.4751 0.7760
vn 0.2554 0.4751 0.8420
vn 0.0862 0.4751 0.8757
vn -0.0862 0.4751 0.8757
vn -0.2554 0.4751 0.8420
vn -0.4148 0.4751 0.7760
vn -0.5582 0.4751 0.6802
vn -0.6802 0.4751 0.5582
vn -0.7760 0.4751 0.4148
vn -0.8420 0.4751 0.2554
vn -0.8757 0.4751 0.0862
vn -0.8757 0.4751 -0.0862
vn -0.8420 0.4751 -0.2554
vn -0.7760 0.4751 -0.4148
vn -0.6802 0.4751 -0.5582
vn -0.5582 0.4751 -0.6802
vn -0.4148 0.4751 -0.7760
vn 0.0000 1.0000 0.0000
vn -0.2554 0.4751 -0.8420
vn -0.0862 0.4751 -0.8757
vn 0.4714 0.0000 -0.8819
vn -0.8819 0.0000 0.4714
vn 0.6344 0.0000 -0.7730
vn -0.9569 0.0000 0.2903
vn 0.7730 0.0000 -0.6344
vn -0.9952 0.0000 0.0980
vn 0.8819 0.0000 -0.4714
vn -0.9952 0.0000 -0.0980
vn 0.9569 0.0000 -0.2903
vn -0.9569 0.0000 -0.2903
vn 0.9952 0.0000 -0.0980
vn -0.8819 0.0000 -0.4714
vn 0.9952 0.0000 0.0980
vn -0.7730 0.0000 -0.6344
vn 0.9569 0.0000 0.2903
vn -0.6344 0.0000 -0.7730
vn 0.8819 0.0000 0.4714
vn -0.4714 0.0000 -0.8819
vn -0.0980 0.0000 0.9952
vn 0.7730 0.0000 0.6344
vn -0.2903 0.0000 -0.9569
vn -0.2903 0.0000 0.9569
vn 0.6344 0.0000 0.7730
vn -0.0980 0.0000 -0.9952
vn -0.4714 0.0000 0.8819
vn 0.4714 0.0000 0.8819
vn 0.0980 0.0000 -0.9952
vn -0.6344 0.0000 0.7730
vn 0.2903 0.0000 0.9569
vn 0.2903 0.0000 -0.9569
vn -0.7730 0.0000 0.6344
vn 0.0980 0.0000 0.9952
usemtl Material
s off
f 93/1/1 95/2/1 254/3/1 253/4/1
f 33/5/2 34/6/2 36/7/2 35/8/2
f 35/8/3 36/7/3 38/9/3 37/10/3
f 37/10/4 38/9/4 40/11/4 39/12/4
f 39/12/5 40/11/5 42/13/5 41/14/5
f 41/14/6 42/13/6 44/15/6 43/16/6
f 43/16/7 44/15/7 46/17/7 45/18/7
f 45/18/8 46/17/8 48/19/8 47/20/8
f 47/20/9 48/19/9 50/21/9 49/22/9
f 49/22/10 50/21/10 52/23/10 51/24/10
f 51/24/11 52/23/11 54/25/11 53/26/11
f 53/26/12 54/25/12 56/27/12 55/28/12
f 55/28/13 56/27/13 58/29/13 57/30/13
f 57/30/14 58/29/14 60/31/14 59/32/14
f 59/32/15 60/31/15 62/33/15 61/34/15
f 61/34/16 62/33/16 64/35/16 63/36/16
f 63/36/17 64/35/17 66/37/17 65/38/17
f 65/38/18 66/37/18 68/39/18 67/40/18
f 67/40/19 68/39/19 70/41/19 69/42/19
f 69/42/20 70/41/20 72/43/20 71/44/20
f 71/44/21 72/43/21 74/45/21 73/46/21
f 73/46/22 74/45/22 76/47/22 75/48/22
f 75/48/23 76/47/23 78/49/23 77/50/23
f 77/50/24 78/49/24 80/51/24 79/52/24
f 79/52/25 80/51/25 82/53/25 81/54/25
f 81/54/26 82/53/26 84/55/26 83/56/26
f 83/56/27 84/55/27 86/57/27 85/58/27
f 85/58/28 86/57/28 88/59/28 87/60/28
f 87/60/29 88/59/29 90/61/29 89/62/29
f 89/62/30 90/61/30 92/63/30 91/64/30
f 91/64/31 92/63/31 94/65/31 93/1/31
f 66/37/32 64/35/32 112/66/32 113/67/32
f 93/1/33 94/65/33 96/68/33 95/2/33
f 95/2/34 96/68/34 34/6/34 33/5/34
f 116/69/35 115/70/35 147/71/35 148/72/35
f 84/55/32 82/53/32 121/73/32 122/74/32
f 40/11/32 38/9/32 99/75/32 100/76/32
f 58/29/32 56/27/32 108/77/32 109/78/32
f 76/47/32 74/45/32 117/79/32 118/80/32
f 94/65/32 92/63/32 126/81/32 127/82/32
f 50/21/32 48/19/32 104/83/32 105/84/32
f 68/39/32 66/37/32 113/67/32 114/85/32
f 86/57/32 84/55/32 122/74/32 123/86/32
f 42/13/32 40/11/32 100/76/32 101/87/32
f 60/31/32 58/29/32 109/78/32 110/88/32
f 78/49/32 76/47/32 118/80/32 119/89/32
f 96/68/32 94/65/32 127/82/32 128/90/32
f 52/23/32 50/21/32 105/84/32 106/91/32
f 70/41/32 68/39/32 114/85/32 115/70/32
f 88/59/32 86/57/32 123/86/32 124/92/32
f 44/15/32 42/13/32 101/87/32 102/93/32
f 62/33/32 60/31/32 110/88/32 111/94/32
f 80/51/32 78/49/32 119/89/32 120/95/32
f 36/7/32 34/6/32 97/96/32 98/97/32
f 34/6/32 96/68/32 128/90/32 97/96/32
f 54/25/32 52/23/32 106/91/32 107/98/32
f 72/43/32 70/41/32 115/70/32 116/69/32
f 90/61/32 88/59/32 124/92/32 125/99/32
f 46/17/32 44/15/32 102/93/32 103/100/32
f 64/35/32 62/33/32 111/94/32 112/66/32
f 82/53/32 80/51/32 120/95/32 121/73/32
f 38/9/32 36/7/32 98/97/32 99/75/32
f 56/27/32 54/25/32 107/98/32 108/77/32
f 74/45/32 72/43/32 116/69/32 117/79/32
f 92/63/32 90/61/32 125/99/32 126/81/32
f 48/19/32 46/17/32 103/100/32 104/83/32
f 103/100/36 102/93/36 134/101/36 135/102/36
f 117/79/37 116/69/37 148/72/37 149/103/37
f 104/83/38 103/100/38 135/102/38 136/104/38
f 118/80/39 117/79/39 149/103/39 150/105/39
f 105/84/40 104/83/40 136/104/40 137/106/40
f 119/89/41 118/80/41 150/105/41 151/107/41
f 106/91/42 105/84/42 137/106/42 138/108/42
f 120/95/43 119/89/43 151/107/43 152/109/43
f 107/98/44 106/91/44 138/108/44 139/110/44
f 121/73/45 120/95/45 152/109/45 153/111/45
f 108/77/46 107/98/46 139/110/46 140/112/46
f 122/74/47 121/73/47 153/111/47 154/113/47
f 109/78/48 108/77/48 140/112/48 141/114/48
f 123/86/49 122/74/49 154/113/49 155/115/49
f 110/88/50 109/78/50 141/114/50 142/116/50
f 124/92/51 123/86/51 155/115/51 156/117/51
f 111/94/52 110/88/52 142/116/52 143/118/52
f 98/97/53 97/96/53 129/119/53 130/120/53
f 125/99/54 124/92/54 156/117/54 157/121/54
f 112/66/55 111/94/55 143/118/55 144/122/55
f 99/75/56 98/97/56 130/120/56 131/123/56
f 126/81/57 125/99/57 157/121/57 158/124/57
f 113/67/58 112/66/58 144/122/58 145/125/58
f 100/76/59 99/75/59 131/123/59 132/126/59
f 127/82/60 126/81/60 158/124/60 159/127/60
f 114/85/61 113/67/61 145/125/61 146/128/61
f 101/87/62 100/76/62 132/126/62 133/129/62
f 128/90/63 127/82/63 159/127/63 160/130/63
f 115/70/64 114/85/64 146/128/64 147/71/64
f 102/93/65 101/87/65 133/129/65 134/101/65
f 97/96/66 128/90/66 160/130/66 129/119/66
f 41/14/1 43/16/1 228/131/1 227/132/1
f 20/133/1 21/134/1 211/135/1 210/136/1
f 59/32/1 61/34/1 237/137/1 236/138/1
f 21/134/1 22/139/1 212/140/1 211/135/1
f 77/50/1 79/52/1 246/141/1 245/142/1
f 22/139/1 23/143/1 213/144/1 212/140/1
f 95/2/1 33/5/1 223/145/1 254/3/1
f 43/16/1 45/18/1 229/146/1 228/131/1
f 23/143/1 24/147/1 214/148/1 213/144/1
f 61/34/1 63/36/1 238/149/1 237/137/1
f 24/147/1 25/150/1 215/151/1 214/148/1
f 79/52/1 81/54/1 247/152/1 246/141/1
f 25/150/1 26/153/1 216/154/1 215/151/1
f 45/18/1 47/20/1 230/155/1 229/146/1
f 26/153/1 27/156/1 217/157/1 216/154/1
f 63/36/1 65/38/1 239/158/1 238/149/1
f 27/156/1 28/159/1 218/160/1 217/157/1
f 1/161/1 2/162/1 193/163/1 11/164/1
f 81/54/1 83/56/1 248/165/1 247/152/1
f 28/159/1 29/166/1 219/167/1 218/160/1
f 2/162/1 3/168/1 194/169/1 193/163/1
f 47/20/1 49/22/1 231/170/1 230/155/1
f 29/166/1 30/171/1 220/172/1 219/167/1
f 3/168/1 4/173/1 195/174/1 194/169/1
f 65/38/1 67/40/1 240/175/1 239/158/1
f 30/171/1 31/176/1 221/177/1 220/172/1
f 4/173/1 5/178/1 196/179/1 195/174/1
f 83/56/1 85/58/1 249/180/1 248/165/1
f 31/176/1 32/181/1 222/182/1 221/177/1
f 5/178/1 6/183/1 197/184/1 196/179/1
f 49/22/1 51/24/1 232/185/1 231/170/1
f 32/181/1 1/161/1 11/164/1 222/182/1
f 6/183/1 7/186/1 198/187/1 197/184/1
f 67/40/1 69/42/1 241/188/1 240/175/1
f 33/5/1 35/8/1 224/189/1 223/145/1
f 7/186/1 8/190/1 199/191/1 198/187/1
f 85/58/1 87/60/1 250/192/1 249/180/1
f 8/190/1 9/193/1 200/194/1 199/191/1
f 51/24/1 53/26/1 233/195/1 232/185/1
f 9/193/1 10/196/1 201/197/1 200/194/1
f 69/42/1 71/44/1 242/198/1 241/188/1
f 87/60/1 89/62/1 251/199/1 250/192/1
f 35/8/1 37/10/1 225/200/1 224/189/1
f 53/26/1 55/28/1 234/201/1 233/195/1
f 12/202/1 13/203/1 203/204/1 202/205/1
f 71/44/1 73/46/1 243/206/1 242/198/1
f 13/203/1 14/207/1 204/208/1 203/204/1
f 89/62/1 91/64/1 252/209/1 251/199/1
f 37/10/1 39/12/1 226/210/1 225/200/1
f 14/207/1 15/211/1 205/212/1 204/208/1
f 55/28/1 57/30/1 235/213/1 234/201/1
f 15/211/1 16/214/1 206/215/1 205/212/1
f 73/46/1 75/48/1 244/216/1 243/206/1
f 16/214/1 17/217/1 207/218/1 206/215/1
f 91/64/1 93/1/1 253/4/1 252/209/1
f 39/12/1 41/14/1 227/132/1 226/210/1
f 17/217/1 18/219/1 208/220/1 207/218/1
f 57/30/1 59/32/1 236/138/1 235/213/1
f 18/219/1 19/221/1 209/222/1 208/220/1
f 75/48/1 77/50/1 245/142/1 244/216/1
f 19/221/1 20/133/1 210/136/1 209/222/1
f 193/163/1 194/169/1 195/174/1 196/179/1 197/184/1 198/187/1 199/191/1 200/194/1 201/197/1 202/205/1 203/204/1 204/208/1 205/212/1 206/215/1 207/218/1 208/220/1 209/222/1 210/136/1 211/135/1 212/140/1 213/144/1 214/148/1 215/151/1 216/154/1 217/157/1 218/160/1 219/167/1 220/172/1 221/177/1 222/182/1 11/164/1
f 223/145/1 224/189/1 225/200/1 226/210/1 227/132/1 228/131/1 229/146/1 230/155/1 231/170/1 232/185/1 233/195/1 234/201/1 235/213/1 236/138/1 237/137/1 238/149/1 239/158/1 240/175/1 241/188/1 242/198/1 243/206/1 244/216/1 245/142/1 246/141/1 247/152/1 248/165/1 249/180/1 250/192/1 251/199/1 252/209/1 253/4/1 254/3/1
usemtl Material.001
f 151/107/32 150/105/32 182/223/32 183/224/32
f 162/225/32 161/226/32 192/227/32 191/228/32 190/229/32 189/230/32 188/231/32 187/232/32 186/233/32 185/234/32 184/235/32 183/224/32 182/223/32 181/236/32 180/237/32 179/238/32 178/239/32 177/240/32 176/241/32 175/242/32 174/243/32 173/244/32 172/245/32 171/246/32 170/247/32 169/248/32 168/249/32 167/250/32 166/251/32 165/252/32 164/253/32 163/254/32
f 138/108/32 137/106/32 169/248/32 170/247/32
f 152/109/32 151/107/32 183/224/32 184/235/32
f 139/110/32 138/108/32 170/247/32 171/246/32
f 153/111/32 152/109/32 184/235/32 185/234/32
f 140/112/32 139/110/32 171/246/32 172/245/32
f 154/113/32 153/111/32 185/234/32 186/233/32
f 141/114/32 140/112/32 172/245/32 173/244/32
f 155/115/32 154/113/32 186/233/32 187/232/32
f 142/116/32 141/114/32 173/244/32 174/243/32
f 156/117/32 155/115/32 187/232/32 188/231/32
f 143/118/32 142/116/32 174/243/32 175/242/32
f 130/120/32 129/119/32 161/226/32 162/225/32
f 157/121/32 156/117/32 188/231/32 189/230/32
f 144/122/32 143/118/32 175/242/32 176/241/32
f 131/123/32 130/120/32 162/225/32 163/254/32
f 158/124/32 157/121/32 189/230/32 190/229/32
f 145/125/32 144/122/32 176/241/32 177/240/32
f 132/126/32 131/123/32 163/254/32 164/253/32
f 159/127/32 158/124/32 190/229/32 191/228/32
f 146/128/32 145/125/32 177/240/32 178/239/32
f 133/129/32 132/126/32 164/253/32 165/252/32
f 160/130/32 159/127/32 191/228/32 192/227/32
f 147/71/32 146/128/32 178/239/32 179/238/32
f 134/101/32 133/129/32 165/252/32 166/251/32
f 129/119/32 160/130/32 192/227/32 161/226/32
f 148/72/32 147/71/32 179/238/32 180/237/32
f 135/102/32 134/101/32 166/251/32 167/250/32
f 149/103/32 148/72/32 180/237/32 181/236/32
f 136/104/32 135/102/32 167/250/32 168/249/32
f 150/105/32 149/103/32 181/236/32 182/223/32
f 137/106/32 136/104/32 168/249/32 169/248/32
